<svg width="39" height="39" viewBox="0 0 39 39" fill="none" xmlns="http://www.w3.org/2000/svg">
<path d="M19.5 37C23.3791 36.9998 27.1484 35.7112 30.2159 33.3367C33.2834 30.9622 35.4754 27.6361 36.4478 23.8808M19.5 37C15.6208 36.9998 11.8516 35.7112 8.78411 33.3367C5.71662 30.9622 3.5246 27.6361 2.55223 23.8808M19.5 37C24.3319 37 28.25 29.1639 28.25 19.5C28.25 9.83611 24.3319 2 19.5 2M19.5 37C14.6681 37 10.75 29.1639 10.75 19.5C10.75 9.83611 14.6681 2 19.5 2M36.4478 23.8808C36.8075 22.4808 37 21.0128 37 19.5C37.0048 16.4902 36.2297 13.5305 34.7503 10.9094M36.4478 23.8808C31.2623 26.7555 25.429 28.2593 19.5 28.25C13.3517 28.25 7.57472 26.6653 2.55223 23.8808M2.55223 23.8808C2.18424 22.4497 1.99869 20.9777 2.00001 19.5C2.00001 16.3792 2.81667 13.4469 4.24973 10.9094M19.5 2C22.6038 1.99871 25.6521 2.8232 28.332 4.38888C31.012 5.95455 33.2272 8.20505 34.7503 10.9094M19.5 2C16.3962 1.99871 13.3479 2.8232 10.668 4.38888C7.98799 5.95455 5.77282 8.20505 4.24973 10.9094M34.7503 10.9094C30.5166 14.5765 25.101 16.5914 19.5 16.5833C13.6706 16.5833 8.33889 14.4444 4.24973 10.9094" stroke="white" stroke-width="3" stroke-linecap="round" stroke-linejoin="round"/>
</svg>
