<svg width="43" height="31" viewBox="0 0 43 31" fill="none" xmlns="http://www.w3.org/2000/svg">
<path d="M40.75 6.125V25.375C40.75 26.469 40.2789 27.5182 39.4404 28.2918C38.6019 29.0654 37.4647 29.5 36.2788 29.5H6.47115C5.28533 29.5 4.14807 29.0654 3.30957 28.2918C2.47107 27.5182 2 26.469 2 25.375V6.125M40.75 6.125C40.75 5.03098 40.2789 3.98177 39.4404 3.20818C38.6019 2.4346 37.4647 2 36.2788 2H6.47115C5.28533 2 4.14807 2.4346 3.30957 3.20818C2.47107 3.98177 2 5.03098 2 6.125M40.75 6.125V6.5705C40.7501 7.27477 40.5547 7.96733 40.1825 8.58221C39.8103 9.19709 39.2737 9.71382 38.6237 10.0832L23.7199 18.544C23.0148 18.9446 22.2031 19.1568 21.375 19.1568C20.547 19.1568 19.7352 18.9446 19.0301 18.544L4.12628 10.085C3.47632 9.71565 2.93968 9.19893 2.56748 8.58404C2.19528 7.96916 1.99992 7.2766 2 6.57233V6.125" stroke="white" stroke-width="3" stroke-linecap="round" stroke-linejoin="round"/>
</svg>
