<svg width="53" height="53" viewBox="0 0 53 53" fill="none" xmlns="http://www.w3.org/2000/svg">
<circle cx="26.5" cy="26.5" r="26.5" fill="#FFEE73"/>
<g clip-path="url(#clip0_56_408)">
<path d="M26.4999 51.3717C40.2361 51.3717 51.3716 40.2362 51.3716 26.5C51.3716 12.7638 40.2361 1.62833 26.4999 1.62833C12.7637 1.62833 1.62823 12.7638 1.62823 26.5C1.62823 40.2362 12.7637 51.3717 26.4999 51.3717Z" fill="#D660CC"/>
<path d="M51.3063 24.6992L39.6164 13.0094L10.5156 42.4843L17.8603 49.829C20.5515 50.8261 23.4618 51.3717 26.4999 51.3717C40.236 51.3717 51.3715 40.2361 51.3715 26.5C51.3715 25.8943 51.3488 25.2941 51.3063 24.6992Z" fill="#8F3E89"/>
</g>
<path d="M38.501 19.9771L40.1654 10.0227L30.3414 12.3352L7.26495 36.9755C6.30035 38.0055 6.35333 39.6223 7.38329 40.5868L11.8134 44.7357C12.8432 45.7003 14.4601 45.6473 15.4244 44.6173L38.501 19.9771Z" fill="#FFC91B"/>
<path d="M11.8178 44.7353L9.50997 42.5739L40.019 10.058L40.1698 10.0225L38.5054 19.9769L15.4288 44.6172C14.4645 45.6469 12.8477 45.6999 11.8178 44.7353Z" fill="#E5AC0E"/>
<path d="M40.1699 10.0225L39.6083 13.4031L36.8334 10.8043L40.1699 10.0225Z" fill="#263A7A"/>
<path d="M40.0193 10.0578L40.1699 10.0225L39.6083 13.4031L38.1563 12.0433L40.0193 10.0578Z" fill="#121149"/>
<path d="M11.8178 44.7353L7.38778 40.5864C6.35781 39.6218 6.30483 38.005 7.26944 36.9752L10.5209 33.5034L18.6805 41.1452L15.4289 44.6172C14.4645 45.6469 12.8477 45.6999 11.8178 44.7353Z" fill="#FF7F4F"/>
<path d="M11.8133 44.7355L9.50545 42.5741L14.5084 37.242L18.676 41.1452L15.4243 44.6172C14.4599 45.6471 12.8432 45.7001 11.8133 44.7355Z" fill="#FF5419"/>
<path d="M30.3459 12.3351L36.8334 10.8043L39.6083 13.4031L38.5055 19.9769L30.3459 12.3351Z" fill="#FFEDB5"/>
<path d="M38.1517 12.0434L39.6037 13.4033L38.5009 19.9771L34.3529 16.0923L38.1517 12.0434Z" fill="#FEE187"/>
<g clip-path="url(#clip1_56_408)">
<path d="M26.4999 51.3717C40.2361 51.3717 51.3716 40.2362 51.3716 26.5C51.3716 12.7638 40.2361 1.62833 26.4999 1.62833C12.7637 1.62833 1.62823 12.7638 1.62823 26.5C1.62823 40.2362 12.7637 51.3717 26.4999 51.3717Z" fill="#D660CC"/>
<path d="M51.3063 24.6992L39.6164 13.0094L10.5156 42.4843L17.8603 49.829C20.5515 50.8261 23.4618 51.3717 26.4999 51.3717C40.236 51.3717 51.3715 40.2361 51.3715 26.5C51.3715 25.8943 51.3488 25.2941 51.3063 24.6992Z" fill="#8F3E89"/>
</g>
<path d="M38.501 19.9771L40.1654 10.0227L30.3414 12.3352L7.26495 36.9755C6.30035 38.0055 6.35333 39.6223 7.38329 40.5868L11.8134 44.7357C12.8432 45.7003 14.4601 45.6473 15.4244 44.6173L38.501 19.9771Z" fill="#FFC91B"/>
<path d="M11.8178 44.7353L9.50997 42.5739L40.019 10.058L40.1698 10.0225L38.5054 19.9769L15.4288 44.6172C14.4645 45.6469 12.8477 45.6999 11.8178 44.7353Z" fill="#E5AC0E"/>
<path d="M40.1699 10.0225L39.6083 13.4031L36.8334 10.8043L40.1699 10.0225Z" fill="#263A7A"/>
<path d="M40.0193 10.0578L40.1699 10.0225L39.6083 13.4031L38.1563 12.0433L40.0193 10.0578Z" fill="#121149"/>
<path d="M11.8178 44.7353L7.38778 40.5864C6.35781 39.6218 6.30483 38.005 7.26944 36.9752L10.5209 33.5034L18.6805 41.1452L15.4289 44.6172C14.4645 45.6469 12.8477 45.6999 11.8178 44.7353Z" fill="#FF7F4F"/>
<path d="M11.8133 44.7355L9.50545 42.5741L14.5084 37.242L18.676 41.1452L15.4243 44.6172C14.4599 45.6471 12.8432 45.7001 11.8133 44.7355Z" fill="#FF5419"/>
<path d="M30.3459 12.3351L36.8334 10.8043L39.6083 13.4031L38.5055 19.9769L30.3459 12.3351Z" fill="#FFEDB5"/>
<path d="M38.1517 12.0434L39.6037 13.4033L38.5009 19.9771L34.3529 16.0923L38.1517 12.0434Z" fill="#FEE187"/>
<path d="M18.9679 19.0731C17.687 20.4587 17.8423 22.6381 19.307 23.8279L42.0091 42.2687C42.5794 42.7318 43.4114 42.6725 43.9101 42.1332C44.4087 41.5938 44.4029 40.7596 43.8963 40.2274L23.7347 19.039C22.4338 17.672 20.2488 17.6877 18.9679 19.0731Z" fill="#FFC61B"/>
<path d="M43.9102 42.1332C43.8694 42.1773 43.8254 42.2171 43.7804 42.2549L18.9049 19.1488C18.9266 19.1239 18.9453 19.0975 18.9678 19.0732C20.2487 17.6877 22.4337 17.672 23.7345 19.0389L43.8966 40.2275C44.4029 40.7596 44.4091 41.5938 43.9102 42.1332Z" fill="#EDB015"/>
<path d="M13.0489 20.2654C15.0333 22.1001 18.1294 21.9787 19.9642 19.9942C21.7988 18.0098 21.6774 14.9137 19.693 13.0789C17.7085 11.2442 9.18437 10.0281 9.18437 10.0281C9.18437 10.0281 11.0643 18.4306 13.0489 20.2654Z" fill="#FFEDB5"/>
<path d="M19.8932 20.067L9.21086 10.1446C9.19366 10.0696 9.18431 10.0284 9.18431 10.0284C9.18431 10.0284 17.7083 11.2445 19.6927 13.0792C21.6771 14.9139 21.7986 18.01 19.9639 19.9943C19.9409 20.0191 19.9167 20.0426 19.8932 20.067Z" fill="#FDE085"/>
<defs>
<clipPath id="clip0_56_408">
<rect width="49.7433" height="49.7433" fill="white" transform="translate(1.62823 1.62833)"/>
</clipPath>
<clipPath id="clip1_56_408">
<rect width="49.7433" height="49.7433" fill="white" transform="translate(1.62823 1.62833)"/>
</clipPath>
</defs>
</svg>
