<svg width="45" height="45" viewBox="0 0 45 45" fill="none" xmlns="http://www.w3.org/2000/svg">
<path d="M33.7162 35.1093C32.4061 33.3747 30.7111 31.968 28.7647 31C26.8183 30.032 24.6738 29.5292 22.5 29.5312C20.3262 29.5292 18.1817 30.032 16.2353 31C14.2889 31.968 12.5939 33.3747 11.2837 35.1093M33.7162 35.1093C36.2728 32.8353 38.0758 29.8378 38.8897 26.5145C39.7036 23.1911 39.488 19.6988 38.2715 16.5008C37.055 13.3028 34.8951 10.5501 32.0782 8.60787C29.2614 6.66559 25.9206 5.62549 22.4991 5.62549C19.0775 5.62549 15.7367 6.66559 12.9199 8.60787C10.103 10.5501 7.94311 13.3028 6.72662 16.5008C5.51013 19.6988 5.29453 23.1911 6.1084 26.5145C6.92228 29.8378 8.72718 32.8353 11.2837 35.1093M33.7162 35.1093C30.63 37.8621 26.6355 39.3808 22.5 39.3749C18.3638 39.3813 14.3704 37.8626 11.2837 35.1093M28.125 18.2812C28.125 19.773 27.5324 21.2038 26.4775 22.2587C25.4226 23.3136 23.9918 23.9062 22.5 23.9062C21.0082 23.9062 19.5774 23.3136 18.5225 22.2587C17.4676 21.2038 16.875 19.773 16.875 18.2812C16.875 16.7893 17.4676 15.3586 18.5225 14.3037C19.5774 13.2488 21.0082 12.6562 22.5 12.6562C23.9918 12.6562 25.4226 13.2488 26.4775 14.3037C27.5324 15.3586 28.125 16.7893 28.125 18.2812Z" stroke="white" stroke-width="3" stroke-linecap="round" stroke-linejoin="round"/>
</svg>
